<?xml version="1.0"?>
<svg xmlns="http://www.w3.org/2000/svg" xmlns:xlink="http://www.w3.org/1999/xlink" version="1.1" id="Capa_1" x="0px" y="0px" viewBox="0 0 512 512" style="enable-background:new 0 0 512 512;" xml:space="preserve" width="512px" height="512px"><g><g>
	<g>
		<path d="M277.013,119.979h-78.3v0.001c-4.199,0-7.604,3.403-7.604,7.604v98.468c0,4.2,3.404,7.604,7.604,7.604h78.3    c23.629,0,42.852-19.223,42.852-42.852v-27.971C319.866,139.202,300.642,119.979,277.013,119.979z M304.658,190.804    c0,15.243-12.401,27.645-27.645,27.645h-70.696v-9.214h68.491c4.2,0,7.604-3.403,7.604-7.604c0-4.2-3.403-7.604-7.604-7.604    h-68.491v-9.606h68.491c4.2,0,7.604-3.403,7.604-7.604c0-4.2-3.403-7.604-7.604-7.604h-68.491v-9.607h68.491    c4.2,0,7.604-3.403,7.604-7.604c0-4.2-3.403-7.604-7.604-7.604h-68.491v-9.213h70.696c15.244,0,27.645,12.402,27.645,27.645    V190.804z" data-original="#000000" class="active-path" data-old_color="#000000" fill="#FFFFFF"/>
	</g>
</g><g>
	<g>
		<path d="M507.749,361.626c-9.288-59.286-33.365-104.214-69.632-129.929c-47.382-33.599-70.962-65.444-82.614-90.005l3.768-4.942    c10.413-13.659,26.43-22.673,43.603-22.398c4.557,0.073,8.214-3.863,7.676-8.511c-0.455-3.928-3.987-6.717-7.941-6.694    c-20.789,0.12-40.705,9.822-53.639,26.068c-3.903-12.301-4.615-21.564-4.615-26.62c0-4.2-3.403-7.604-7.604-7.604H319.36    c-4.199,0-7.604,3.404-7.604,7.604s3.404,7.604,7.604,7.604h9.789v141.855h-131.28c-10.366,0-18.77-8.404-18.77-18.77v-27.233    v-30.415v-60.83v-4.607h104.776c4.199,0,7.604-3.404,7.604-7.604s-3.404-7.604-7.604-7.604H171.495    c-4.199,0-7.604,3.404-7.604,7.604v4.607H99.19L83.641,85.969C69.683,70.502,49.731,61.632,28.899,61.632    c-4.198,0-7.606,3.405-7.606,7.604v33.963H7.604c-4.199,0-7.604,3.404-7.604,7.604v60.83v30.415c0,4.199,3.404,7.604,7.604,7.604    h74.519v19.77c0,4.199,3.404,7.604,7.604,7.604h75.065c3.515,15.015,17.006,26.234,33.076,26.234h17.894    c4.448,15.931,14.474,42.836,32.762,49.927c4.999,1.902,18.398,4.43,76.783,4.43h0.112c5.871,0,11.376,2.853,14.724,7.632    c18.356,26.2,22.481,63.969,23.068,87.776c-11.575,3.341-20.065,14.031-20.065,26.667v3.073c0,4.199,3.404,7.604,7.604,7.604    h152.624c3.899,0,7.166-2.949,7.564-6.828C511.094,442.019,514.671,405.817,507.749,361.626z M36.501,77.338    c13.715,1.804,26.484,8.441,35.85,18.82l6.356,7.042H36.501V77.338z M163.891,221.817H97.33v-12.166h66.561V221.817z     M163.891,164.029h-36.142c-4.199,0-7.604,3.404-7.604,7.604s3.404,7.604,7.604,7.604h36.142v15.207H89.727H15.207v-15.207h77.057    c4.199,0,7.604-3.404,7.604-7.604s-3.404-7.604-7.604-7.604H15.207v-45.622h148.684V164.029z M313.442,302.37    c-46.192-0.312-56.993-2.44-59.465-3.381c-9.022-3.498-17.193-19.247-22.35-35.73h58.319c-3.336,7.892-9.099,14.463-17.232,19.599    c-3.55,2.243-4.611,6.939-2.368,10.489c1.447,2.29,3.912,3.544,6.436,3.544c1.388,0,2.793-0.38,4.053-1.176    c12.652-7.989,21.274-19.126,25.234-32.457h7.373V302.37z M496.296,435.16H359.201c1.821-4.683,6.376-8.01,11.694-8.01h125.728    C496.536,430.26,496.416,432.958,496.296,435.16z M378.399,411.941c-0.748-29.358-6.138-67.355-25.8-95.419    c-5.572-7.951-14.359-13.005-23.95-13.941v-39.322h8.103c4.2,0,7.604-3.403,7.604-7.604V153.93    c4.864,9.102,10.882,18.289,18.057,27.539c21.646,27.902,48.333,49.461,66.91,62.633c22.85,16.202,52.389,50.092,63.348,119.53    c2.849,18.052,3.843,34.895,4.045,48.309H378.399z" data-original="#000000" class="active-path" data-old_color="#000000" fill="#FFFFFF"/>
	</g>
</g><g>
	<g>
		<path d="M479.618,392.084c-0.649-8.733-1.632-17.348-2.924-25.605c-5.035-32.166-14.701-59.045-28.731-79.894    c-6.816-10.128-19.64-14.482-31.182-10.581l-26.408,8.918c-7.379,2.491-13.3,8.053-16.245,15.26    c-2.963,7.251-2.625,15.429,0.927,22.431l0.112,0.222c9.875,19.652,16.086,43.363,18.464,70.476    c0.345,3.927,3.633,6.94,7.575,6.94h70.83c2.115,0,4.133-0.88,5.572-2.429C479.047,396.272,479.776,394.193,479.618,392.084z     M408.086,385.042c-2.96-26.182-9.452-49.379-19.339-69.056l-0.124-0.247c-1.558-3.068-1.709-6.642-0.417-9.806    c1.293-3.164,3.79-5.51,7.033-6.605l26.408-8.918c5.069-1.711,10.701,0.207,13.701,4.665c15.917,23.652,23.1,53.163,26.322,73.753    c0.824,5.27,1.518,10.698,2.071,16.214H408.086z" data-original="#000000" class="active-path" data-old_color="#000000" fill="#FFFFFF"/>
	</g>
</g><g>
	<g>
		<path d="M436.06,358.263c-2.345-1.808-5.64-2.11-8.257-0.71c-3.429,1.833-4.876,6.027-3.444,9.616    c2.616,6.171,11.676,6.108,14.11-0.173C439.66,363.923,438.679,360.284,436.06,358.263z" data-original="#000000" class="active-path" data-old_color="#000000" fill="#FFFFFF"/>
	</g>
</g><g>
	<g>
		<path d="M371.768,232.054c-2.483-2.394-6.414-2.802-9.329-0.948c-5.734,3.647-3.948,12.73,2.758,13.91    c3.474,0.611,6.965-1.336,8.331-4.574C374.68,237.553,374.016,234.221,371.768,232.054z" data-original="#000000" class="active-path" data-old_color="#000000" fill="#FFFFFF"/>
	</g>
</g></g> </svg>
