<?xml version="1.0"?>
<svg xmlns="http://www.w3.org/2000/svg" xmlns:xlink="http://www.w3.org/1999/xlink" version="1.1" id="Capa_1" x="0px" y="0px" viewBox="0 0 120 120" style="enable-background:new 0 0 120 120;" xml:space="preserve" width="512px" height="512px" class=""><g><g id="_x30_104-christmas-lights">
	<g>
		<path style="fill-rule: evenodd; clip-rule: evenodd;" d="M119.888,23.559c-0.02-0.05-0.381-0.057-0.465,0.031    c-0.779,0.822-1.638,1.498-2.684,1.977c-5.604,2.568-11.316,4.79-17.275,6.446c-7.062,1.965-14.21,3.062-21.531,3.064    c-5.041,0.003-10.071-0.037-15.11-0.468c-3.237-0.275-6.481-0.534-9.673-1.058c-6.965-1.139-13.796-2.875-20.432-5.316    c-4.628-1.702-9.17-3.609-13.388-6.201c-3.533-2.173-6.987-4.44-9.842-7.518c-0.747-0.806-1.754-1.381-2.684-1.994    c-0.223-0.148-0.681-0.144-0.918-0.011c-0.248,0.139-0.539,0.545-0.503,0.79c0.206,1.438,0.476,2.832,1.459,4.041    c1.707,2.096,3.547,4.046,5.713,5.663c1.705,1.271,3.464,2.47,5.196,3.708c0.75,0.537,0.853,0.835,0.586,1.707    c-0.818,2.674-1.688,5.33-2.871,7.872c-0.542,1.165-0.832,2.432-0.159,3.553c0.531,0.885,0.234,1.38-0.252,2.052    c-1.444,1.993-2.934,3.967-4.23,6.057c-2.043,3.293-3.198,6.893-3.187,10.814c0.004,1.57,0.001,3.14,0.001,5.162    c-0.471,3.949,0.425,8.247,1.002,12.569c0.119,0.887,0.224,1.78,0.441,2.644c0.132,0.522,0.405,1.043,0.727,1.479    c0.702,0.941,1.72,1.058,2.643,0.363c0.625-0.469,1.167-1.103,1.857-1.416c1.559-0.713,2.794-1.843,4.139-2.846    c5.009-3.74,8.319-8.727,10.596-14.444c1.042-2.611,1.573-5.347,1.506-8.203c-0.065-2.701-0.259-5.362-1.056-7.956    c-0.197-0.643,0.047-1.062,0.62-1.353c3.001-1.518,4.816-3.924,5.433-7.237c0.081-0.438,0.238-0.862,0.37-1.288    c0.264-0.86,0.268-0.861,1.176-0.625c2.921,0.759,5.867,1.438,8.752,2.314c1.376,0.417,2.925,0.191,4.149,1.131    c0.042,1.448,0.118,2.898,0.107,4.346c-0.005,0.778-0.139,1.56-0.254,2.333c-0.182,1.216-0.355,2.438-0.621,3.639    c-0.152,0.698-0.175,1.375,0.229,1.935c0.565,0.779,0.367,1.412-0.112,2.112c-2.194,3.208-3.154,6.87-3.993,10.604    c-0.75,3.33-0.589,6.683-0.625,10.038c-0.034,3.134,0.909,6,2.734,8.487c1.383,1.889,2.957,3.672,4.661,5.271    c1.029,0.967,2.44,1.552,3.735,2.197c0.846,0.422,1.752,0.279,2.552-0.273c1.951-1.347,3.772-2.863,5.072-4.855    c1.285-1.964,2.408-4.037,3.561-6.083c2.091-3.708,2.93-7.687,2.732-11.948c-0.115-2.5-0.492-4.902-1.562-7.162    c-0.958-2.021-1.988-4.008-2.986-6.012c0.624-2.303,0.345-4.66,0.398-6.997c0.015-0.671,0.02-1.348-0.038-2.017    c-0.057-0.664-0.085-1.364-0.323-1.974c-0.787-2.024-0.038-2.184,1.529-2.104c2.012,0.102,4.025,0.198,6.038,0.282    c0.782,0.032,1.57,0.067,2.352,0.034c3.022-0.13,6.041-0.327,9.062-0.409c1.077-0.03,2.429-0.625,3.176,0.309    c0.549,0.685,0.468,1.887,0.636,2.863c0.341,1.983,0.692,3.966,0.971,5.959c0.09,0.648,0.072,1.351-0.071,1.989    c-1.272,5.625-1.627,11.365-1.086,17.038c0.674,7.083,3.359,13.24,10.419,16.448c0.3,0.136,0.551,0.381,0.816,0.588    c0.628,0.488,1.24,0.309,1.887,0.024c1.439-0.636,2.188-1.891,2.867-3.184c2.807-5.342,4.451-10.942,4.179-17.076    c-0.167-3.766-0.856-7.32-2.678-10.632c-0.433-0.786-0.842-1.582-1.284-2.361c-0.282-0.493-0.448-0.947-0.324-1.567    c0.756-3.766,0.121-7.341-1.585-10.755c-0.347-0.697-0.664-1.421-0.886-2.165c-0.073-0.239,0.112-0.708,0.327-0.854    c0.453-0.309,0.99-0.513,1.516-0.691c3.304-1.113,6.428-2.629,9.468-4.312c3.313-1.835,6.002-4.295,7.382-7.941    C120.041,24.009,119.967,23.75,119.888,23.559z M26.27,44.811c-0.699,2.416-0.406,4.895-0.376,7.334    c0.085,6.887-2.634,12.571-7.158,17.546c-0.451,0.497-0.913,0.993-1.434,1.411c-0.941,0.755-1.584,1.904-2.873,2.202    c-1.458-0.825-1.281-2.483-1.885-3.742c-0.14-0.288-0.137-0.654-0.159-0.987c-0.167-2.564-0.322-5.128-0.419-6.701    c-0.061-7.465,1.643-13.354,5.796-18.424c0.141-0.174,0.304-0.329,0.431-0.512c1.094-1.588,1.104-1.619,2.493-1.108    c1.675,0.616,3.331,1.29,4.991,1.947C26.138,43.96,26.414,44.31,26.27,44.811z M30.772,35.051    c-0.111,0.445-0.269,1.442-0.607,2.371c-0.835,2.294-1.08,2.365-3.322,1.545c-1.354-0.496-2.739-0.904-4.087-1.414    c-0.241-0.094-0.367-0.492-0.546-0.751c0.202-0.086,0.399-0.188,0.608-0.256c0.599-0.196,0.958-0.52,0.776-1.221    c-0.049-0.192-0.065-0.468,0.037-0.608c0.303-0.42,0.97-0.677,0.65-1.353c-0.316-0.668-0.946-0.891-1.642-0.956    c-0.107-0.01-0.223-0.026-0.315-0.075c-0.097-0.05-0.168-0.142-0.251-0.217c0.129-0.12,0.24-0.306,0.392-0.346    c0.313-0.085,0.7-0.001,0.968-0.148c1.638-0.898,1.627-0.91,2.592-0.457c1.306,0.616,2.619,1.219,3.921,1.84    C30.823,33.426,30.96,33.679,30.772,35.051z M57.67,44.414c-0.425-0.657-0.655-1.018,0.141-1.556    c0.451-0.305,0.237-1.112-0.209-1.404c-0.978-0.639-2.028-0.832-3.186-0.679c-0.175,0.024-0.41-0.401-0.62-0.62    c0.246-0.169,0.486-0.349,0.743-0.494c0.084-0.049,0.22-0.023,0.329-0.011c1.665,0.176,3.329,0.354,4.992,0.533    c0.666,0.072,1.333,0.133,1.995,0.232c0.461,0.068,0.893,0.258,0.638,0.84c-1.074,2.443-0.851,5.031-0.893,7.594    c-0.024,1.473-0.25,1.662-1.804,1.694c-0.334,0.006-0.67,0.002-1.005,0.002c-1.678-0.015-3.351-0.081-4.903-0.817    c-0.149-0.071-0.284-0.36-0.268-0.531c0.016-0.169,0.222-0.451,0.358-0.459c1.276-0.078,2.356-0.558,3.297-1.413    C58.291,46.402,58.471,45.651,57.67,44.414z M63.668,74.016c-0.868,2.321-2.001,4.495-3.436,6.514    c-0.453,0.639-0.93,1.277-1.267,1.979c-1.07,2.241-1.349,2.113-3.528,0.805c-3.988-2.392-5.947-5.904-6.057-10.542    c-0.115-4.959,0.129-9.853,2.071-14.508c0.431-1.031,0.893-2.051,1.369-3.061c0.14-0.3,0.358-0.566,0.565-0.829    c0.377-0.479,1.21-0.54,1.829-0.144c0.48,0.308,0.402,0.751,0.245,1.178c-1.108,2.991-1.307,6.105-1.257,9.254    c0.003,0.111-0.002,0.223,0.004,0.334c0.077,1.711,0.75,2.521,2.051,2.474c1.176-0.042,1.795-0.796,1.871-2.314    c0.026-0.559,0.008-1.121,0.008-1.682c0.001-1.008,0.001-2.017,0.001-3.024h0.097c0-1.68-0.02-3.358,0.013-5.037    c0.01-0.507,0.398-0.764,0.893-0.785c1.053-0.043,1.982,0.081,2.432,1.285c1.014,2.722,2.172,5.381,2.849,8.233    C65.231,67.549,64.872,70.794,63.668,74.016z M91.398,41.059c-0.229-0.321-0.237-1.089,0.1-1.184    c1.379-0.385,2.762-0.759,4.162-1.057c0.227-0.049,0.651,0.237,0.796,0.479c1.324,2.213,2.26,4.586,2.787,7.111    c0.088,0.425,0.055,0.887,0.02,1.328c-0.062,0.788-0.703,1.386-1.544,1.472c-0.22,0.023-0.445,0.004-0.259,0.004    c-1.233,0.062-1.904-0.055-2.229-1.016c-0.234-0.691-1.005-0.781-1.642-0.998c-0.461-0.155-0.568-0.715-0.28-1.076    c0.136-0.172,0.325-0.299,0.471-0.465c0.928-1.06,0.928-1.28-0.385-1.839c-0.788-0.337-0.308-0.441-0.031-0.776    c0.539-0.652,0.455-1.049-0.173-1.259C92.579,41.58,91.855,41.695,91.398,41.059z M96.753,58.329    c0.024-0.134,0.052-0.354,0.111-0.564c0.012-0.049,0.146-0.099,0.208-0.084c0.101,0.022,0.249,0.082,0.275,0.159    c0.179,0.509,0.366,1.02,0.471,1.547c0.033,0.165-0.181,0.377-0.285,0.568c-0.25-0.18-0.512-0.345-0.744-0.547    c-0.061-0.053-0.032-0.214-0.036-0.325C96.749,58.859,96.753,58.637,96.753,58.329z M103.784,64.925    c0.396,5.396-1.073,10.389-3.446,15.163c-0.402,0.811-0.801,0.821-1.557,0.11c-4.021-3.78-6.237-8.375-6.245-13.949    c-0.004-3.243-0.017-6.485,0.062-9.727c0.02-0.864,0.318-1.735,0.587-2.571c0.065-0.202,0.569-0.425,0.801-0.365    c0.233,0.061,0.595,0.542,0.534,0.695c-0.912,2.342-0.431,4.897-1.141,7.265c-0.125,0.419-0.12,0.89-0.097,1.333    c0.051,1.063,0.448,1.949,1.449,2.464c1.473,0.755,3.034,1.31,4.34,2.423c0.759,0.646,2.551-0.204,3.068-1.323    c0.626-1.365,0.749-2.807,0.298-4.244c-0.776-2.48-1.6-4.946-2.407-7.416c-0.053-0.037-0.107-0.073-0.157-0.112    c-0.016-0.04-0.015-0.096-0.01-0.154c-0.116-0.076-0.232-0.152-0.349-0.228c0.418-0.208,0.363,0.029,0.349,0.228    c0.034,0.022,0.068,0.044,0.103,0.067c0.021,0.066,0.044,0.133,0.065,0.199c0.295,0.204,0.621,0.387,0.805,0.665    C102.729,58.316,103.536,61.549,103.784,64.925z M96.51,92.311c-0.647-0.072-1.199,0.277-1.528,1.036    c-0.665,1.541-1.089,3.131-1.1,4.832c-0.014,2.111-0.112,4.222-0.15,6.332c-0.009,0.55,0.029,1.11,0.124,1.652    c0.132,0.745,0.741,1.069,1.371,1.318c0.719,0.282,1.294-0.04,1.803-0.511c0.617-0.573,0.773-1.315,0.767-2.123    c-0.015-1.667-0.004-3.334-0.004-5.001c-0.015,0-0.028-0.003-0.042-0.003c0.067-1.441,0.137-2.886,0.201-4.328    c0.023-0.552,0.078-1.107,0.043-1.656C97.941,93.041,97.292,92.398,96.51,92.311z M8.245,87.18    c-0.717-0.315-1.332,0.027-1.856,0.432c-2.083,1.608-2.82,3.945-3.212,6.392c-0.168,1.047,0.8,2.26,1.756,2.59    c0.793,0.275,1.956-0.185,2.517-1.192c0.758-1.359,1.412-2.779,2.037-4.205c0.215-0.493,0.203-1.086,0.236-1.281    c0-0.471,0.004-0.582-0.001-0.693C9.668,88.225,9.132,87.566,8.245,87.18z M110.931,86.514c-0.675-0.972-2.077-0.912-2.877,0.011    c-0.282,0.325-0.546,0.704-0.697,1.105c-0.844,2.23,0.497,5.362,2.732,6.45c1.395,0.68,3.297-0.594,3.279-2.194    c-0.006-0.11,0.005-0.226-0.022-0.33C112.848,89.727,112,88.055,110.931,86.514z M89.39,85.495    c-1.327-0.037-2.396,0.495-3.022,1.67c-0.786,1.479-1.28,3.062-1.279,4.764c0,0.221-0.01,0.443,0.002,0.664    c0.054,0.921,0.228,1.914,1.19,2.185c0.985,0.277,1.713-0.556,2.119-1.301c1.001-1.836,1.909-3.73,2.713-5.661    C91.551,86.764,90.547,85.527,89.39,85.495z M45.109,87.001c-1.054-0.127-1.956,0.303-2.446,1.32    c-0.773,1.6-1.295,3.283-1.431,5.273c0.04,0.353,0.072,0.906,0.171,1.446c0.12,0.642,0.736,1.164,1.389,1.247    c0.656,0.084,1.355-0.255,1.649-0.866c0.237-0.496,0.452-1.013,0.591-1.543c0.419-1.601,0.784-3.205,1.509-4.719    C46.983,88.242,46.163,87.129,45.109,87.001z M18.929,82.903c-0.781,0.051-1.151,0.619-1.394,1.244    c-0.197,0.507-0.325,1.06-0.368,1.601c-0.06,0.77-0.015,1.549-0.015,2.323c-0.015,0.001-0.03,0.001-0.044,0.002    c0.039,0.883,0.031,1.773,0.134,2.649c0.104,0.906,0.915,1.546,1.851,1.579c1.084,0.041,2.001-0.673,2.035-1.745    c0.066-2.102,0.062-4.208-0.576-6.249C20.275,83.415,19.632,82.855,18.929,82.903z M48.729,96.378    c-0.356-0.028-0.965,0.232-1.082,0.521c-0.871,2.159-1.78,4.326-1.79,6.75c0.128,0.868,0.177,1.757,0.412,2.594    c0.157,0.559,0.738,0.87,1.323,0.786c0.396-0.057,0.875-0.279,1.1-0.586c0.313-0.428,0.531-0.988,0.606-1.519    c0.288-2.085,0.536-4.178,0.732-6.273c0.05-0.526-0.032-1.132-0.264-1.599C49.606,96.722,49.103,96.406,48.729,96.378z     M113.995,72.248c-1.122-0.265-2.2,0.736-2.064,1.927c0.166,1.439,0.953,2.42,2.241,3.034c1.248,0.596,2.526-0.223,2.516-1.612    C116.677,74.086,115.484,72.602,113.995,72.248z M26.102,75.892c-0.365-0.199-0.78-0.423-1.172-0.417    c-0.241,0.005-0.615,0.372-0.688,0.643c-0.204,0.739-0.28,1.511-0.339,1.875c0.051,0.97,0.014,1.538,0.128,2.076    c0.114,0.531,0.335,1.058,0.593,1.541c0.22,0.411,0.648,0.64,1.12,0.512c0.294-0.081,0.66-0.269,0.787-0.514    c0.247-0.481,0.515-1.051,0.477-1.561c-0.089-1.211-0.339-2.411-0.555-3.611C26.418,76.235,26.271,75.983,26.102,75.892z     M5.079,76.45c0.115-0.632-0.73-1.226-1.363-0.984c-2.006,0.764-3.175,2.305-3.708,4.303c-0.088,0.331,0.485,0.838,0.681,1.146    c0.452,0,0.708,0.077,0.88-0.012C3.428,79.968,4.702,78.546,5.079,76.45z M65.308,90.482c-0.411-0.241-1.108-0.288-1.54-0.107    c-0.41,0.175-0.646,0.765-0.806,0.974c-0.098,1.702,0.338,2.905,1.333,3.902c0.472,0.472,1.396,0.44,1.771-0.062    C67.06,93.858,66.696,91.294,65.308,90.482z M58.858,100.346c-0.09-0.235-0.514-0.467-0.791-0.471    c-0.28-0.005-0.711,0.202-0.825,0.438c-0.59,1.207-1.073,2.472-0.76,3.847c0.122,0.529,0.41,1.029,0.672,1.516    c0.229,0.424,1.114,0.407,1.468,0.043c0.776-0.798,0.842-1.785,0.772-3.588C59.364,102.018,59.171,101.16,58.858,100.346z     M61.78,61.653c-0.494-1.947-1.035-3.885-1.568-5.822c-0.025-0.094-0.192-0.242-0.219-0.228c-0.146,0.079-0.355,0.181-0.387,0.312    c-0.213,0.864-0.424,1.732-0.559,2.612c-0.083,0.544-0.101,1.118-0.025,1.663c0.201,1.433,0.469,2.856,0.708,4.286    c0.14,0.837,0.544,1.367,1.136,1.485c0.648,0.129,1.209-0.621,1.235-1.655c0.002-0.113,0-0.226,0-0.824    C62.05,63.188,61.97,62.406,61.78,61.653z M22.803,45.783c-0.526-0.06-1.068,0.01-1.604,0.03c0.003,0.02,0.005,0.04,0.009,0.06    c-0.021,0.016-0.044,0.03-0.066,0.046c-0.004,0.184,0.002,0.369-0.047,0.538c-0.041,0.143-0.19,0.252-0.291,0.376    c-0.026-0.196-0.123-0.422-0.055-0.579c0.062-0.143,0.242-0.232,0.394-0.335c0-0.034,0-0.068,0.002-0.103    c0.019,0,0.037-0.002,0.055-0.003c-0.087-0.527-0.125-1.071-0.289-1.572c-0.232-0.717-1.093-0.948-1.618-0.445    c-0.393,0.376-0.808,0.797-1.024,1.282c-0.995,2.246-1.853,4.549-2.354,6.965c-0.11,0.537-0.091,1.109-0.068,1.664    c0.026,0.641,0.589,1.237,1.247,1.416c0.597,0.162,1.4-0.142,1.712-0.765c0.242-0.487,0.322-1.051,0.5-1.571    c0.048-0.14,0.191-0.246,0.29-0.368c0.042,0.103,0.109,0.203,0.122,0.309c0.038,0.335,0.055,0.669,0.081,1.003    c0.063,0.778,0.089,1.562,0.203,2.331c0.086,0.576,0.944,1.191,1.506,1.128c0.608-0.068,1.024-0.443,1.246-0.989    c0.165-0.406,0.299-0.845,0.346-1.278c0.07-0.667,0.019-1.344,0.078-2.011c0.187-2.102-0.179-4.238,0.475-6.317    C23.815,46.078,23.233,45.833,22.803,45.783z" data-original="#000000" class="active-path" data-old_color="fill-rule: evenodd clip-rule: evenodd;#FFFFFF" fill="#FFFFFF"/>
	</g>
</g></g> </svg>
