<?xml version="1.0"?>
<svg xmlns="http://www.w3.org/2000/svg" xmlns:xlink="http://www.w3.org/1999/xlink" version="1.1" id="Capa_1" x="0px" y="0px" viewBox="0 0 60.001 60.001" style="enable-background:new 0 0 60.001 60.001;" xml:space="preserve" width="512px" height="512px"><g><g>
	<path d="M57.249,13.604c-2.168-2.892-4.839-5.304-7.97-7.187c-10.857-6.009-23.516-7.88-35.651-5.266l-3.512,0.757L8.817,0.611   C8.005-0.198,6.685-0.198,5.876,0.612L1.041,5.447C0.647,5.84,0.43,6.363,0.43,6.918s0.217,1.078,0.61,1.472l0.785,0.786   C0.434,14.07,1.774,19.276,5.397,22.9c2.623,2.624,6.193,3.994,10.068,3.835c3.331-0.129,6.598-1.417,9.132-3.572l4.034,4.733   c3.008,3.529,4.665,8.027,4.665,12.664V57.27c0,1.506,1.226,2.731,2.731,2.731h2.536c1.507,0,2.732-1.225,2.732-2.731V40.623   c0-4.676,1.681-9.202,4.732-12.743l3.104-3.605l0.99,0.975c0.384,0.38,0.826,0.696,1.313,0.94l0.536,0.269   c1.451,0.726,3.119,0.733,4.578,0.02c1.458-0.713,2.477-2.035,2.795-3.627C59.993,19.615,59.229,16.245,57.249,13.604z    M2.455,6.861L7.29,2.026C7.305,2.01,7.327,2.002,7.347,2.002s0.042,0.008,0.058,0.024l3.464,3.551   c-2.534,0.241-4.522,2.381-4.522,4.978c0,0.109,0.004,0.217,0.011,0.324L2.455,6.977C2.428,6.949,2.427,6.889,2.455,6.861z    M11.346,7.554c0.205,0,0.417,0.025,0.648,0.075c0.027,0.006,0.055,0.011,0.082,0.015c1.303,0.327,2.27,1.508,2.27,2.91   c0,1.654-1.346,3-3,3c-1.379,0-2.543-0.935-2.893-2.204c-0.005-0.039-0.012-0.078-0.021-0.117c-0.059-0.249-0.087-0.47-0.087-0.676   c0-0.001,0-0.002,0-0.003C8.346,8.9,9.692,7.554,11.346,7.554z M23.866,19.227c-0.77-0.771-0.763-2.032,0.016-2.811   c0.379-0.378,0.882-0.586,1.416-0.586c0.518,0,1.006,0.195,1.38,0.551l0.944,1.174l-2.903,2.671L23.866,19.227z M39.296,57.27   c0,0.403-0.328,0.731-0.732,0.731h-2.536c-0.403,0-0.731-0.328-0.731-0.731v-3.734l4-2.667V57.27z M39.296,48.466l-4,2.667v-4.596   l4-2.667V48.466z M44.513,26.574c-3.364,3.904-5.217,8.894-5.217,14.049v0.843l-4,2.667v-3.571c0-5.113-1.826-10.071-5.144-13.961   l-4.136-4.85l2.859-2.631l6.302,7.843c0.518,0.645,1.29,1.016,2.118,1.019c0.003,0,0.006,0,0.008,0   c0.825,0,1.597-0.367,2.116-1.006l5.539-6.809l2.746,2.704L44.513,26.574z M49.014,21.351l-2.787-2.744l1.809-2.224   c0.761-0.724,2.05-0.713,2.797,0.032c0.779,0.78,0.779,2.049-0.051,2.883L49.014,21.351z M57.385,22.459   c-0.195,0.975-0.819,1.785-1.713,2.222c-0.893,0.438-1.915,0.433-2.804-0.012l-0.536-0.269c-0.299-0.149-0.569-0.342-0.805-0.575   l-1.087-1.07l1.806-2.097c1.56-1.56,1.56-4.098,0-5.657c0,0-0.001,0-0.001-0.001c-1.513-1.509-4.145-1.508-5.655,0   c-0.024,0.024-0.048,0.05-0.069,0.077l-8.652,10.635c-0.188,0.233-0.434,0.268-0.564,0.268c0,0-0.001,0-0.002,0   c-0.13,0-0.376-0.036-0.565-0.271l-6.951-8.652c-0.012-0.016-0.024-0.031-0.038-0.046l-1.549-1.928   c-0.022-0.028-0.047-0.056-0.073-0.082c-1.512-1.509-4.144-1.51-5.657,0.001c-1.559,1.56-1.566,4.09-0.07,5.582l0.902,1.059   c-2.195,1.867-5.026,2.983-7.913,3.096c-3.305,0.122-6.351-1.026-8.576-3.251c-2.831-2.832-4.035-6.792-3.322-10.647l1.532,1.533   c0.521,0.521,1.249,0.708,1.927,0.559c0.847,1.562,2.501,2.625,4.398,2.625c2.757,0,5-2.243,5-5c0-2.028-1.214-3.778-2.953-4.562   c-0.012-0.515-0.213-1.02-0.594-1.4l-1.001-1.001l2.251-0.485c11.656-2.511,23.825-0.716,34.229,5.042   c2.877,1.731,5.356,3.971,7.37,6.655C57.288,16.99,57.921,19.78,57.385,22.459z" data-original="#000000" class="active-path" data-old_color="#000000" fill="#FFFFFF"/>
	<path d="M22.865,50.033c0.277-0.621,0.432-1.309,0.432-2.032c0-2.565-1.941-4.685-4.432-4.968c0.277-0.621,0.432-1.309,0.432-2.032   c0-2.757-2.243-5-5-5s-5,2.243-5,5c0,0.723,0.154,1.411,0.432,2.032c-2.49,0.283-4.432,2.403-4.432,4.968   c0,0.723,0.154,1.411,0.432,2.032c-2.49,0.283-4.432,2.403-4.432,4.968c0,2.757,2.243,5,5,5c1.634,0,3.087-0.788,4-2.003   c0.913,1.215,2.366,2.003,4,2.003s3.087-0.788,4-2.003c0.913,1.215,2.366,2.003,4,2.003c2.757,0,5-2.243,5-5   C27.296,52.436,25.355,50.316,22.865,50.033z M14.296,38.001c1.654,0,3,1.346,3,3s-1.346,3-3,3s-3-1.346-3-3   S12.642,38.001,14.296,38.001z M6.296,58.001c-1.654,0-3-1.346-3-3s1.346-3,3-3s3,1.346,3,3S7.951,58.001,6.296,58.001z    M10.296,51.001c-1.654,0-3-1.346-3-3s1.346-3,3-3s3,1.346,3,3S11.951,51.001,10.296,51.001z M14.296,58.001c-1.654,0-3-1.346-3-3   s1.346-3,3-3s3,1.346,3,3S15.951,58.001,14.296,58.001z M18.296,51.001c-1.654,0-3-1.346-3-3s1.346-3,3-3s3,1.346,3,3   S19.951,51.001,18.296,51.001z M22.296,58.001c-1.654,0-3-1.346-3-3s1.346-3,3-3s3,1.346,3,3S23.951,58.001,22.296,58.001z" data-original="#000000" class="active-path" data-old_color="#000000" fill="#FFFFFF"/>
</g></g> </svg>
