<?xml version="1.0"?>
<svg xmlns="http://www.w3.org/2000/svg" xmlns:xlink="http://www.w3.org/1999/xlink" version="1.1" id="Layer_1" x="0px" y="0px" viewBox="0 0 512 512" style="enable-background:new 0 0 512 512;" xml:space="preserve" width="512px" height="512px"><g><g>
	<g>
		<path d="M506.182,430.545V325.818H273.454v-34.909h162.909V186.182H273.454v-33.498L320,106.139V0H192v106.139l46.545,46.545    v33.498H5.818v104.727h232.727v34.909H5.818v104.727h232.727v42.839c-3.61,4.101-5.818,9.463-5.818,15.343    C232.727,501.56,243.167,512,256,512c12.833,0,23.273-10.44,23.273-23.273c0-5.88-2.209-11.241-5.818-15.343v-42.839H506.182z     M238.545,395.636H40.727v-34.909h197.818V395.636z M238.545,256H40.727v-34.909h197.818V256z M471.273,360.727v34.909H273.454    v-34.909H471.273z M401.454,221.091V256h-128v-34.909H401.454z M256,120.77l-29.091-29.091v-56.77h58.182v56.77L256,120.77z" data-original="#000000" class="active-path" data-old_color="#ffffff" fill="#FFFFFF"/>
	</g>
</g></g> </svg>
