<?xml version="1.0"?>
<svg xmlns="http://www.w3.org/2000/svg" xmlns:xlink="http://www.w3.org/1999/xlink" version="1.1" id="Capa_1" x="0px" y="0px" viewBox="0 0 512 512" style="enable-background:new 0 0 512 512;" xml:space="preserve" width="512px" height="512px"><g><g>
	<g>
		<g>
			<path d="M504.334,226.563c-6.658-7.784-16.235-12.474-26.467-12.959v-77.116C477.769,61.131,416.691,0.073,341.334,0H170.667     C95.31,0.073,34.233,61.131,34.134,136.487v77.116c-10.233,0.486-19.811,5.175-26.471,12.959     c-6.213,7.374-8.815,17.133-7.1,26.621l10.663,58.325c2.623,12.686,13.971,21.661,26.921,21.291h13.054v14.763     c-0.015,4.96,0.39,9.913,1.212,14.804c3.669,20.505,14.338,39.103,30.188,52.621l64.513,56.663     c29.61,26.015,67.68,40.358,107.095,40.35h3.584c39.415,0.009,77.485-14.335,107.096-40.35l64.538-56.683     c15.808-13.48,26.459-32.02,30.142-52.467c0.834-4.935,1.246-9.932,1.233-14.937V332.8h13.058     c12.935,0.378,24.278-8.579,26.908-21.25l10.667-58.342C513.155,243.712,510.552,233.943,504.334,226.563z M51.201,315.733     H38.146c-4.666,0.287-8.893-2.74-10.125-7.25l-10.671-58.392c-0.823-4.509,0.441-9.148,3.437-12.617     c3.407-3.921,8.204-6.366,13.379-6.818c0.135,10.695,6.941,20.165,17.034,23.704V315.733z M353.622,458.825     c-26.494,23.28-60.56,36.116-95.829,36.108h-3.584c-35.269,0.008-69.335-12.828-95.829-36.108l-64.492-56.642     c-8.461-7.377-15.234-16.489-19.86-26.717h45.44V384c0.015,14.132,11.468,25.585,25.6,25.6h8.533     c3.911-0.024,7.763-0.956,11.254-2.72c-1.765,3.49-2.696,7.343-2.72,11.254v8.533c0.015,14.132,11.468,25.585,25.6,25.6h8.533     c4.411-0.028,8.738-1.209,12.551-3.425c4.664,7.427,12.812,11.942,21.582,11.959h8.533c6.319-0.02,12.404-2.394,17.067-6.658     c4.663,4.265,10.748,6.639,17.067,6.658h8.533c8.77-0.017,16.918-4.532,21.582-11.959c3.813,2.217,8.14,3.398,12.551,3.425h8.533     c14.132-0.015,25.585-11.468,25.6-25.6v-8.533c0-0.081-0.023-0.157-0.024-0.238c7.347,5.656,16.352,8.739,25.624,8.771h14.768     L353.622,458.825z M136.534,384v-8.533h25.6V384c-0.006,4.71-3.823,8.527-8.533,8.533h-8.533     C140.357,392.527,136.54,388.71,136.534,384z M187.734,409.6h8.533c4.71,0.006,8.527,3.823,8.533,8.533v8.533     c-0.006,4.71-3.823,8.527-8.533,8.533h-8.533c-4.71-0.006-8.527-3.823-8.533-8.533v-8.533     C179.207,413.423,183.024,409.606,187.734,409.6z M179.201,384v-8.533h25.6V384c-0.006,4.71-3.823,8.527-8.533,8.533h-8.533     C183.024,392.527,179.207,388.71,179.201,384z M230.401,409.6h8.533c4.71,0.006,8.527,3.823,8.533,8.533V435.2     c-0.006,4.71-3.823,8.527-8.533,8.533h-8.533c-4.71-0.006-8.527-3.823-8.533-8.533v-8.533v-8.533     C221.873,413.423,225.69,409.606,230.401,409.6z M221.867,384v-8.533h25.6V384c-0.006,4.71-3.823,8.527-8.533,8.533h-8.533     C225.69,392.527,221.873,388.71,221.867,384z M273.067,409.6h8.533c4.71,0.006,8.527,3.823,8.533,8.533V435.2     c-0.006,4.71-3.823,8.527-8.533,8.533h-8.533c-4.71-0.006-8.527-3.823-8.533-8.533v-17.067     C264.54,413.423,268.357,409.606,273.067,409.6z M264.534,384v-8.533h25.6V384c-0.006,4.71-3.823,8.527-8.533,8.533h-8.533     C268.357,392.527,264.54,388.71,264.534,384z M315.734,409.6h8.533c4.71,0.006,8.527,3.823,8.533,8.533v8.533     c-0.006,4.71-3.823,8.527-8.533,8.533h-8.533c-4.71-0.006-8.527-3.823-8.533-8.533v-8.533     C307.207,413.423,311.024,409.606,315.734,409.6z M307.201,384v-8.533h25.6V384c-0.006,4.71-3.823,8.527-8.533,8.533h-8.533     C311.024,392.527,307.207,388.71,307.201,384z M443.734,347.563c0.012,4.076-0.325,8.145-1.008,12.162     c-3.045,16.563-11.735,31.56-24.592,42.437l-8.48,7.448l-0.053-0.011h-34.133c-14.132-0.015-25.585-11.468-25.6-25.6v-17.067     c0-4.713-3.82-8.533-8.533-8.533H69.101c-0.553-3.586-0.831-7.209-0.833-10.837v-98.539l37.979-94.915     c3.068-7.723,8.391-14.344,15.275-19c15.03-9.822,34.604-9.169,48.946,1.633l49.717,38.621     c21.046,16.403,50.545,16.412,71.6,0.021l49.75-38.642c14.331-10.785,33.88-11.448,48.908-1.658     c6.914,4.671,12.258,11.319,15.333,19.075l37.959,94.865V347.563z M458.192,236.392c-0.262,0.266-0.54,0.515-0.833,0.746     l-35.717-89.275c-6.832-17.147-21.331-30.082-39.145-34.92c-17.813-4.837-36.864-1.013-51.43,10.324l-49.783,38.662     c-15.008,11.206-35.601,11.198-50.6-0.021l-49.75-38.642c-20.219-15.247-47.836-16.154-69.012-2.267     c-9.711,6.571-17.216,15.916-21.538,26.817l-35.733,89.304c-0.354-0.272-0.688-0.568-1-0.887c-1.587-1.555-2.472-3.69-2.45-5.913     v-93.833c0.086-65.936,53.53-119.36,119.467-119.421h170.667c65.936,0.061,119.38,53.484,119.467,119.421v93.833     C460.809,232.618,459.865,234.816,458.192,236.392z M494.651,250.117L494.651,250.117l-10.675,58.413     c-1.246,4.49-5.466,7.495-10.117,7.204h-13.058v-61.362c3.563-1.214,6.797-3.235,9.45-5.905     c4.81-4.682,7.542-11.097,7.583-17.809c5.176,0.453,9.974,2.898,13.383,6.818C494.213,240.954,495.474,245.601,494.651,250.117z" data-original="#000000" class="active-path" data-old_color="#000000" fill="#FFFFFF"/>
			<path d="M295.801,317.888c-3.523-3.13-8.916-2.811-12.046,0.713c-2.302,2.721-5.363,4.694-8.792,5.667     c-1.581-0.204-3.124-0.633-4.583-1.275l-1.483-0.533c-6.185-2.165-12.826-2.682-19.271-1.5c-2.299,0.469-4.561,1.1-6.771,1.888     c-1.86,0.753-3.819,1.232-5.817,1.421c-3.432-0.964-6.496-2.939-8.792-5.667c-3.13-3.523-8.523-3.842-12.046-0.712     c-3.523,3.13-3.842,8.523-0.713,12.046c5.449,6.432,13.167,10.515,21.55,11.4c3.849-0.131,7.648-0.91,11.237-2.304     c1.442-0.53,2.919-0.959,4.421-1.283c3.52-0.652,7.15-0.374,10.529,0.808l1.283,0.463c3.315,1.401,6.858,2.186,10.454,2.316     c8.383-0.885,16.101-4.968,21.55-11.4C299.643,326.41,299.324,321.017,295.801,317.888z" data-original="#000000" class="active-path" data-old_color="#000000" fill="#FFFFFF"/>
			<path d="M221.867,290.133c4.713,0,8.533-3.82,8.533-8.533v-51.2c-0.054-0.568-0.167-1.13-0.338-1.674     c-0.282-5.641-2.961-10.893-7.362-14.434c-7.834-5.596-17.404-2.329-28.488,1.458c-8.873,3.548-18.269,5.614-27.813,6.117     c-9.543-0.503-18.939-2.569-27.813-6.117c-11.083-3.788-20.654-7.054-28.487-1.458c-5.681,5.167-8.544,12.742-7.7,20.375     c0,0.607,0.074,1.195,0.091,1.798c-0.009,0.158-0.091,0.292-0.091,0.452v42.667c0,4.713,3.82,8.533,8.533,8.533     s8.533-3.82,8.533-8.533v-1.551c2.609,2.82,5.465,5.402,8.533,7.714V307.2c0,4.713,3.82,8.533,8.533,8.533     s8.533-3.82,8.533-8.533v-12.267c24.082,8.648,51.001,1.983,68.267-16.901v3.568     C213.334,286.313,217.155,290.133,221.867,290.133z M166.401,281.6c-25.908-0.029-46.904-21.025-46.933-46.933     c-0.096-2.126,0.14-4.255,0.7-6.308h0.013c4.415,0.711,8.74,1.898,12.9,3.541c10.636,4.192,21.899,6.569,33.321,7.034     c11.422-0.464,22.685-2.842,33.321-7.033c4.159-1.643,8.485-2.83,12.9-3.541h0.013c0.56,2.053,0.796,4.182,0.7,6.308     C213.305,260.575,192.309,281.571,166.401,281.6z" data-original="#000000" class="active-path" data-old_color="#000000" fill="#FFFFFF"/>
			<path d="M354.134,179.2c-33.115,0.046-60.736,25.323-63.711,58.304c-0.139,0.467-0.236,0.945-0.289,1.43v51.2     c0,4.713,3.82,8.533,8.533,8.533s8.533-3.82,8.533-8.533v-3.568c4.905,5.328,10.675,9.79,17.067,13.196v15.972     c0,4.713,3.821,8.533,8.533,8.533c4.713,0,8.533-3.82,8.533-8.533v-9.823c23.914,4.881,48.522-4.264,63.445-23.578     s17.561-45.433,6.803-67.341C400.823,193.082,378.541,179.2,354.134,179.2z M354.134,290.133     c-18.983,0-36.096-11.435-43.361-28.973c-7.264-17.538-3.249-37.725,10.174-51.148s33.61-17.438,51.148-10.174     c17.538,7.264,28.973,24.378,28.973,43.361C401.038,269.108,380.042,290.104,354.134,290.133z" data-original="#000000" class="active-path" data-old_color="#000000" fill="#FFFFFF"/>
		</g>
	</g>
</g></g> </svg>
